HIERARCHY
ROOT Hips
{
  OFFSET 0 0 0
  CHANNELS 6 Xposition Yposition Zposition Zrotation Yrotation Xrotation
  JOINT LeftThigh
  {
    OFFSET 8.409438 0 -5.917753
    CHANNELS 3 Zrotation Yrotation Xrotation
    JOINT LeftLeg
    {
      OFFSET 0 0 -42.358652
      CHANNELS 3 Zrotation Yrotation Xrotation
      JOINT LeftFoot
      {
        OFFSET 0 0 -39.357303
        CHANNELS 3 Zrotation Yrotation Xrotation
      }
    }
  }
  JOINT RightThigh
  {
    OFFSET -8.409438 0 -5.917753
    CHANNELS 3 Zrotation Yrotation Xrotation
    JOINT RightLeg
    {
      OFFSET 0 0 -42.358652
      CHANNELS 3 Zrotation Yrotation Xrotation
      JOINT RightFoot
      {
        OFFSET 0 0 -39.357303
        CHANNELS 3 Zrotation Yrotation Xrotation
      }
    }
  }
  JOINT SpineLow
  {
    OFFSET 0 0 4.719101
    CHANNELS 3 Zrotation Yrotation Xrotation
    JOINT SpineMid
    {
      OFFSET 0 0 12.899191
      CHANNELS 3 Zrotation Yrotation Xrotation
      JOINT Chest
      {
        OFFSET 0 0 12.899191
        CHANNELS 3 Zrotation Yrotation Xrotation
        JOINT LeftShoulder
        {
          OFFSET 7.550562 1.41573 9.438202
          CHANNELS 3 Zrotation Yrotation Xrotation
          JOINT LeftArm
          {
            OFFSET 9.155056 0 4.247191
            CHANNELS 3 Zrotation Yrotation Xrotation
            JOINT LeftForearm
            {
              OFFSET 0 0 25.771955
              CHANNELS 3 Zrotation Yrotation Xrotation
              JOINT LeftHand
              {
                OFFSET 0 0 25.197169
                CHANNELS 3 Zrotation Yrotation Xrotation
              }
            }
          }
        }
        JOINT RightShoulder
        {
          OFFSET -7.550562 1.41573 9.438202
          CHANNELS 3 Zrotation Yrotation Xrotation
          JOINT RightArm
          {
            OFFSET -9.155056 0 4.247191
            CHANNELS 3 Zrotation Yrotation Xrotation
            JOINT RightForearm
            {
              OFFSET 0 0 -25.771955
              CHANNELS 3 Zrotation Yrotation Xrotation
              JOINT RightHand
              {
                OFFSET 0 0 -25.197169
                CHANNELS 3 Zrotation Yrotation Xrotation
              }
            }
          }
        }
        JOINT Neck
        {
          OFFSET 0 0 15.101124
          CHANNELS 3 Zrotation Yrotation Xrotation
          JOINT Head
          {
            OFFSET 0 0 11.325843
            CHANNELS 3 Zrotation Yrotation Xrotation
            End Site
            {
              OFFSET 0 0 14.157303
            }
          }
        }
      }
    }
  }
}
MOTION
Frames: 11
Frame Time: 0.0
0.0  93.25843  0.0  -4.11372  33.298403  -97.23114  14.066169  -22.725549  28.728062  -4.048686  -0.175456  9.779125  7.314192  1.296516  1.288618  -16.091857  -11.898034  -30.170096  6.140063  19.659789  44.437203  2.125126  0.287835  0.019099  -0.798344  -1.142253  -0.19296  -2.174555  -3.128195  -0.489982  -2.174555  -3.128195  -0.489982  -22.281657  31.363234  15.427302  135.386215  54.32152  -149.600143  -24.965759  3.317884  82.874219  81.091702  -6.522278  -12.758462  6.546265  -13.492567  25.818391  4.920404  80.967212  -48.891677  -54.582913  -13.295788  -79.366985  60.315866  6.853644  -21.835518  -15.395176  6.558827  12.886958  -11.678634  4.600605  9.82784  
0.0  93.25843  0.0  -4.115966  33.069113  -97.039546  14.215752  -22.592937  28.543988  -3.995283  -0.177753  9.730602  7.264653  1.336068  1.24482  -15.969456  -11.923491  -30.734711  5.85515  19.77957  44.602074  1.902697  0.135792  0.101676  -0.776077  -1.1469  -0.198189  -2.113374  -3.140905  -0.505192  -2.113374  -3.140905  -0.505192  -22.269215  31.314415  15.409395  135.37366  54.253684  -149.573739  -24.962752  3.367746  82.844752  81.085451  -6.534  -12.746923  6.558946  -13.465232  25.764219  5.02591  80.937354  -48.752053  -54.554924  -13.457788  -79.322164  60.307116  6.808025  -21.864976  -15.382764  6.467637  12.79441  -11.666664  4.534667  9.756279  
0.0  93.25843  0.0  -4.206462  32.401703  -96.940021  14.914532  -22.612645  28.307271  -3.998887  -0.243914  9.732859  7.237379  1.439323  1.230473  -15.45885  -12.034983  -31.392875  5.532685  19.89305  44.960632  1.62279  -0.17598  0.203409  -0.729351  -1.159301  -0.202038  -1.985307  -3.174574  -0.517578  -1.985307  -3.174574  -0.517578  -22.446111  31.199816  15.2697  134.933484  54.230031  -149.610063  -25.31672  3.329199  82.640641  81.308307  -6.362856  -13.021983  6.637818  -13.455706  25.685388  4.670242  80.898967  -48.96942  -54.356016  -13.765097  -79.306214  60.212014  6.768734  -21.908261  -15.347082  6.408744  12.696492  -11.637772  4.493592  9.681141  
0.0  93.25843  0.0  -4.188319  32.086123  -96.627167  15.163274  -22.443396  28.031552  -3.899928  -0.235569  9.695583  7.114223  1.467136  1.158135  -15.259181  -12.111371  -32.277312  4.958274  20.137945  45.241784  1.407575  -0.246648  0.396555  -0.697055  -1.162608  -0.216625  -1.896245  -3.183788  -0.558937  -1.896245  -3.183788  -0.558937  -22.461949  31.098967  15.241031  134.856103  54.179042  -149.598115  -25.370661  3.411776  82.588647  81.261301  -6.432659  -13.008576  6.6758  -13.407841  25.540472  4.443867  80.822393  -49.074527  -54.192104  -13.817608  -79.361203  60.21143  6.759147  -21.901307  -15.308229  6.334435  12.588568  -11.606142  4.44124  9.598123  
0.0  93.25843  0.0  -4.18157  31.48255  -96.409715  15.41273  -22.175958  27.746134  -3.88356  -0.299362  9.652738  7.108031  1.542062  1.139613  -14.957568  -12.220266  -33.050354  4.261615  20.339883  45.41743  1.400839  -0.29239  0.65915  -0.659027  -1.159343  -0.223473  -1.791917  -3.174742  -0.57959  -1.791917  -3.174742  -0.57959  -22.526941  30.962132  15.18241  133.891837  54.265033  -149.765743  -25.841554  3.277379  82.290341  81.501929  -6.266228  -13.398901  6.736795  -13.375706  25.334688  0.594038  80.782385  -52.111421  -53.594346  -14.676571  -79.441863  60.135953  6.725145  -21.960805  -15.344955  6.296172  12.448973  -11.631444  4.415221  9.493018  
0.0  93.25843  0.0  -4.121379  31.061079  -96.089366  15.6379  -21.934409  27.604575  -3.720561  -0.315168  9.526631  7.032322  1.604951  1.113827  -14.896682  -12.445519  -33.918522  3.645136  20.654222  45.645173  0.880367  -0.328202  0.879843  -0.615044  -1.160767  -0.227585  -1.671402  -3.178363  -0.592919  -1.671401  -3.178363  -0.592919  -22.58236  30.827338  15.095702  133.779798  54.249057  -149.751577  -25.876346  3.369914  82.263176  81.508771  -6.301982  -13.4892  6.829031  -13.339374  25.082078  0.494583  80.755938  -52.085903  -53.418234  -14.562096  -79.553733  60.159766  6.731235  -21.97094  -15.323247  6.197312  12.309226  -11.61195  4.344866  9.385779  
0.0  93.25843  0.0  -4.061924  30.378127  -95.843616  15.800095  -21.565825  27.525986  -3.790107  -0.404389  9.238208  7.220274  1.767372  1.239888  -14.837831  -12.794773  -34.657086  3.068585  21.080688  45.857073  0.298571  -0.345552  1.104091  -0.576838  -1.150754  -0.234832  -1.566625  -3.150835  -0.614814  -1.566625  -3.150835  -0.614814  -22.611442  30.661101  15.025005  132.330847  54.428999  -150.034956  -26.806538  2.778738  81.596584  81.645805  -6.250127  -13.71901  7.032254  -13.382984  24.856193  -3.372077  80.807357  -55.181863  -52.935934  -15.254229  -79.626807  60.000044  6.647134  -22.06759  -15.471437  6.173366  12.096114  -11.72028  4.329284  9.227085  
0.0  93.25843  0.0  -3.947413  29.900157  -95.515108  15.87421  -21.138643  27.52818  -3.601986  -0.477987  9.022738  7.284044  1.842508  1.257795  -15.171031  -13.19768  -35.334737  2.439678  21.614554  45.939038  -0.167418  -0.348887  1.313922  -0.527864  -1.145222  -0.239001  -1.432513  -3.135364  -0.628672  -1.432513  -3.135364  -0.628673  -22.708889  30.527301  14.903732  132.186201  54.475027  -150.10584  -26.817145  2.796262  81.694434  81.753474  -6.216996  -13.91402  7.148768  -13.414365  24.55805  -3.304077  80.968123  -55.101496  -52.842538  -15.208073  -79.637657  60.018153  6.64368  -22.053571  -15.479033  6.078077  11.92697  -11.722577  4.261806  9.098168  
0.0  93.25843  0.0  -3.998492  28.339032  -95.650915  16.511909  -20.835953  27.773666  -3.104086  -0.586144  8.992467  7.468943  1.935249  1.324793  -14.722183  -13.767079  -35.458524  1.78023  22.147806  45.971376  -0.366857  -0.388632  1.525989  -0.50116  -1.101716  -0.232378  -1.360133  -3.016067  -0.6127  -1.360133  -3.016067  -0.612701  -22.841702  30.16315  14.737723  131.715882  54.540771  -150.169362  -27.886855  1.878134  80.983823  81.864916  -6.163499  -14.127353  8.072068  -13.919513  24.551477  -3.406937  81.209262  -55.205454  -52.743115  -15.307382  -79.584348  59.817755  6.564287  -22.174443  -15.151626  5.945888  11.906679  -11.474787  4.169293  9.076443  
0.0  93.25843  0.0  -3.886713  27.91179  -95.337844  16.385082  -20.313504  27.895395  -2.601722  -0.721161  8.75515  7.478751  1.934359  1.338314  -15.411986  -14.203662  -35.928329  1.099161  22.673864  46.023516  -0.590406  -0.341298  1.573559  -0.485582  -1.090902  -0.236534  -1.317426  -2.986452  -0.624988  -1.317426  -2.986452  -0.624988  -22.918508  29.998538  14.550277  131.75019  54.565032  -150.134615  -27.861093  1.820861  81.123775  81.939626  -6.135359  -14.275052  8.307489  -13.985197  24.213113  -3.360375  81.471115  -55.211616  -52.637397  -15.356188  -79.494873  59.810155  6.58211  -22.185164  -15.091516  5.851197  11.713562  -11.426167  4.104044  8.928883  
0.0  93.25843  0.0  -4.012812  26.447509  -95.459176  17.253559  -20.18136  28.20266  -1.930971  -0.915396  8.612725  7.454277  1.937866  1.360842  -15.254722  -14.855538  -35.891962  0.477854  23.12582  46.131892  -1.068824  -0.255943  1.47105  -0.5112  -1.075433  -0.238506  -1.387533  -2.94445  -0.629538  -1.387533  -2.94445  -0.629538  -21.81657  29.703319  14.823142  132.074756  54.582534  -150.01186  -27.895517  1.826223  81.220879  82.0198  -6.11588  -14.424343  9.299895  -14.310447  24.115346  -2.152779  81.793585  -54.208749  -52.481042  -15.463172  -79.401026  59.67011  6.566296  -22.227325  -14.612676  5.785085  11.648652  -11.065466  4.064938  8.873778  
